<svg width="40" height="31" viewBox="0 0 40 31" fill="none" xmlns="http://www.w3.org/2000/svg">
<path d="M25.1797 26.7216C24.6016 26.7216 24.0937 26.2921 24.0157 25.6987C23.9375 25.0585 24.3906 24.4728 25.0312 24.387C28.7344 23.9185 32.0469 22.9112 34.3672 21.5604C36.4843 20.3268 37.6563 18.8744 37.6563 17.4768C37.6563 15.9308 36.289 14.6736 35.1406 13.885C34.6094 13.5181 34.4688 12.7919 34.8359 12.2532C35.2031 11.7222 35.9297 11.5816 36.4688 11.9486C38.7734 13.5337 40 15.4467 40 17.4768C40 19.7802 38.461 21.8883 35.5469 23.5828C32.9219 25.1053 29.3906 26.1906 25.3281 26.706C25.2812 26.7216 25.2266 26.7216 25.1797 26.7216Z" fill="#555E66"/>
<path d="M19.711 25.0506L16.5859 21.9274C16.125 21.4668 15.3828 21.4668 14.9297 21.9274C14.4688 22.3881 14.4688 23.1299 14.9297 23.5828L15.8437 24.4963C12.3437 24.1371 9.16407 23.3172 6.70312 22.1382C3.9375 20.8108 2.34375 19.1087 2.34375 17.4846C2.34375 16.1025 3.48437 14.6736 5.54688 13.4478C6.10157 13.1199 6.28906 12.4015 5.96094 11.8393C5.63281 11.285 4.91406 11.0976 4.35157 11.4255C0.757814 13.565 0 15.8996 0 17.4846C0 20.0847 2.01563 22.4818 5.6875 24.2464C8.53124 25.6128 12.211 26.5264 16.2266 26.8856L14.9375 28.1739C14.4766 28.6345 14.4766 29.3763 14.9375 29.8292C15.1641 30.0556 15.4688 30.1728 15.7657 30.1728C16.0625 30.1728 16.3672 30.0556 16.5937 29.8292L19.7188 26.706C20.1719 26.2453 20.1719 25.5035 19.711 25.0506Z" fill="#555E66"/>
<path d="M12.2734 15.1343V14.8532C12.2734 13.8616 11.6641 13.6664 10.8515 13.6664C10.3437 13.6664 10.1797 13.2214 10.1797 12.7763C10.1797 12.3312 10.3437 11.8861 10.8515 11.8861C11.4141 11.8861 12.0078 11.8159 12.0078 10.6134C12.0078 9.75454 11.5156 9.54372 10.9062 9.54372C10.1797 9.54372 9.80469 9.7233 9.80469 10.3011C9.80469 10.8086 9.57814 11.1444 8.71876 11.1444C7.64841 11.1444 7.51559 10.9179 7.51559 10.2074C7.51559 9.05178 8.34372 7.55268 10.8984 7.55268C12.7812 7.55268 14.2109 8.23199 14.2109 10.2386C14.2109 11.324 13.8125 12.3312 13.0703 12.6748C13.9453 13.0027 14.5859 13.6508 14.5859 14.8532V15.1343C14.5859 17.5705 12.9062 18.484 10.8281 18.484C8.27345 18.484 7.29683 16.9302 7.29683 15.6809C7.29683 15.0094 7.57814 14.8376 8.39841 14.8376C9.35152 14.8376 9.58593 15.0484 9.58593 15.6106C9.58593 16.3055 10.2421 16.4695 10.9062 16.4695C11.9141 16.4695 12.2734 16.1025 12.2734 15.1343Z" fill="#555E66"/>
<path d="M23.6016 14.8532V14.986C23.6016 17.5392 22.0157 18.4841 19.961 18.4841C17.9063 18.4841 16.3125 17.5314 16.3125 14.986V11.0585C16.3125 8.5053 17.961 7.56047 20.1016 7.56047C22.6094 7.56047 23.6016 9.11427 23.6016 10.348C23.6016 11.0585 23.2578 11.285 22.5157 11.285C21.875 11.285 21.3125 11.121 21.3125 10.4416C21.3125 9.87951 20.7188 9.58282 20.0234 9.58282C19.1484 9.58282 18.625 10.0434 18.625 11.0663V12.4015C19.1016 11.8862 19.7657 11.7456 20.4844 11.7456C22.1719 11.7379 23.6016 12.4796 23.6016 14.8532ZM18.625 15.15C18.625 16.1728 19.1328 16.6179 19.961 16.6179C20.7891 16.6179 21.2812 16.1728 21.2812 15.15V15.0172C21.2812 13.9319 20.7891 13.5181 19.9453 13.5181C19.1406 13.5181 18.625 13.9007 18.625 14.8845V15.15Z" fill="#555E66"/>
<path d="M25.3984 14.986V11.0585C25.3984 8.5053 26.9843 7.56047 29.039 7.56047C31.0859 7.56047 32.6875 8.5131 32.6875 11.0585V14.9938C32.6875 17.547 31.0859 18.4919 29.039 18.4919C26.9843 18.4919 25.3984 17.5392 25.3984 14.986ZM30.3672 11.0585C30.3672 10.0356 29.8594 9.57496 29.0312 9.57496C28.2031 9.57496 27.711 10.0356 27.711 11.0585V14.9938C27.711 16.0167 28.2031 16.4774 29.0312 16.4774C29.8594 16.4774 30.3672 16.0167 30.3672 14.9938V11.0585Z" fill="#555E66"/>
<path d="M35.5 7.54489C33.5625 7.54489 31.9843 5.96763 31.9843 4.03123C31.9843 2.09481 33.5625 0.517578 35.5 0.517578C37.4375 0.517578 39.0157 2.09481 39.0157 4.03123C39.0157 5.96763 37.4375 7.54489 35.5 7.54489ZM35.5 2.86001C34.8516 2.86001 34.3281 3.38315 34.3281 4.03123C34.3281 4.6793 34.8516 5.20244 35.5 5.20244C36.1484 5.20244 36.6719 4.6793 36.6719 4.03123C36.6719 3.38315 36.1406 2.86001 35.5 2.86001Z" fill="#555E66"/>
</svg>
