<svg width="80" height="80" viewBox="0 0 80 80" fill="none" xmlns="http://www.w3.org/2000/svg">
<path d="M69.9428 32.4572V36.9143C69.4857 37.9429 68.6857 38.1715 67.5428 38.1715C49.1428 38.1715 30.6286 38.1715 12.2286 38.1715C10.6286 38.1715 10.0571 37.6 10.0571 36C10.0571 34.9714 10.0571 34.0572 10.0571 33.0286C10.0571 31.8857 10.7428 31.2 11.8857 31.2C13.7143 31.2 15.5428 31.2 17.3714 31.2C17.6 31.2 17.7143 31.2 17.9428 31.0857C18.0571 30.9715 18.2857 30.8572 18.4 30.7429C22.7428 25.2572 27.0857 19.8857 31.4286 14.4C31.8857 13.8286 32.5714 13.4857 33.3714 13.6C33.7143 13.7143 33.9428 13.8286 34.2857 14.0572C34.5143 14.2857 34.6286 14.6286 34.7428 14.9715C34.8571 15.6572 34.6286 16.1143 34.2857 16.6857C31.2 20.5715 28 24.4572 24.9143 28.4572C24.2286 29.3715 23.5428 30.1714 22.7428 31.2H57.7143C57.6 30.9714 57.4857 30.8572 57.3714 30.7429C53.6 26.0572 49.9428 21.3715 46.1714 16.8C45.2571 15.6572 45.6 14.1715 46.9714 13.8286C47.7714 13.6 48.3428 13.9429 48.9143 14.5143C51.8857 18.1715 54.8571 21.8286 57.7143 25.6C59.0857 27.4286 60.5714 29.1429 61.9428 30.9715C62.0571 31.0857 62.1714 31.2 62.2857 31.3143C62.4 31.4286 62.6286 31.4286 62.7428 31.4286C64.4571 31.4286 66.1714 31.4286 67.8857 31.4286C68.6857 31.2 69.4857 31.5429 69.9428 32.4572Z" fill="#68DC97"/>
<path d="M14.0571 41.8286C14.0571 41.9429 14.0571 42.0572 14.1714 42.1715C16.3428 49.7143 18.5143 57.3715 20.6857 64.9143C21.0286 65.9429 21.6 66.4 22.7428 66.4C34.2857 66.4 45.9428 66.4 57.4857 66.4C58.6286 66.4 59.2 65.9429 59.5428 64.8C61.3714 58.5143 63.0857 52.2286 64.9143 46.0572C65.2571 44.6858 65.7143 43.3143 66.0571 41.8286H14.0571ZM32.1143 57.6C32.1143 57.7143 32.1143 57.8286 32.1143 57.8286V57.9429C32.1143 57.9429 32.1143 57.9429 32.1143 58.0572V58.1715C32.1143 58.2858 32 58.4 32 58.4C32 58.4 32 58.4 32 58.5143C32 58.6286 31.8857 58.6286 31.7714 58.7429C31.7714 58.7429 31.7714 58.7429 31.6571 58.8572C31.6571 58.8572 31.6571 58.8572 31.5428 58.9715C31.5428 58.9715 31.4286 58.9715 31.4286 59.0858H31.3143H31.2C31.0857 59.0858 30.9714 59.2 30.9714 59.2H30.8571H30.7428H30.6286C30.1714 59.3143 29.7143 59.2 29.3714 58.8572C29.0286 58.6286 28.8 58.1715 28.6857 57.7143C28.2286 55.4286 27.8857 53.1429 27.5428 50.8572C27.3143 49.8286 27.2 48.6858 26.9714 47.6572C26.8571 47.2 26.8571 46.7429 26.9714 46.2858C27.2 45.6 27.8857 45.0286 28.6857 45.1429C29.0286 45.1429 29.4857 45.2572 29.7143 45.6C29.9428 45.9429 30.1714 46.1715 30.2857 46.6286C30.6286 48.3429 30.8571 50.1715 31.2 51.8858C31.4286 53.4858 31.7714 55.2 32 56.8C32 56.9143 32 57.0286 32 57.1429V57.2572V57.3715C32.1143 57.4858 32.1143 57.4858 32.1143 57.6ZM41.7143 57.3715C41.7143 58.5143 41.0286 59.3143 40 59.3143C38.9714 59.3143 38.1714 58.5143 38.1714 57.3715C38.1714 54.0572 38.1714 50.6286 38.1714 47.3143C38.1714 46.1715 38.8571 45.3715 39.8857 45.3715C40.9143 45.3715 41.6 46.1715 41.6 47.3143C41.6 49.0286 41.6 50.6286 41.6 52.3429C41.7143 53.9429 41.7143 55.6572 41.7143 57.3715ZM53.1428 47.6572C52.5714 50.9715 52 54.2858 51.5428 57.6C51.5428 57.7143 51.5428 57.8286 51.4286 57.9429C51.3143 58.4 51.0857 58.7429 50.7428 58.9715C50.4 59.2 49.9428 59.3143 49.4857 59.3143C48.5714 59.2 48 58.4 48 57.3715C48.2286 56.1143 48.4571 54.6286 48.6857 53.2572C49.0286 51.3143 49.3714 49.2572 49.7143 47.3143V47.2C49.9428 45.9429 50.7428 45.2572 51.7714 45.3715C52.8 45.3715 53.3714 46.4 53.1428 47.6572Z" fill="#0080F6"/>
</svg>
