<svg width="80" height="80" viewBox="0 0 80 80" fill="none" xmlns="http://www.w3.org/2000/svg">
<path d="M68.8 22.7428C68.8 22.5142 68.8 22.2857 68.8 22.1714H11.2V22.7428C11.2 36.6857 11.2 50.6285 11.2 64.5714C11.2 67.2 12.8 68.8 15.4286 68.8C31.7714 68.8 48.2286 68.8 64.5714 68.8C67.2 68.8 68.8 67.2 68.8 64.5714C68.8 50.6285 68.8 36.6857 68.8 22.7428ZM63.4286 64H16.5714V26.9714H63.5429V64H63.4286Z" fill="#0080F6"/>
<path d="M68.8 15.2C68.8 14.8571 68.8 14.4 68.6857 14.0571C68.2286 12.2285 66.7429 11.2 64.5714 11.2C48.1143 11.2 31.7714 11.2 15.3143 11.2C15.0857 11.2 14.8571 11.2 14.6286 11.2C13.7143 11.3142 12.8 11.6571 12.2286 12.3428C11.6571 13.0285 11.2 13.8285 11.0857 14.7428C10.9714 15.8857 11.0857 16.9142 11.0857 18.0571C11.0857 18.7428 11.0857 19.4285 11.0857 20.2285H68.6857C68.6857 20 68.6857 19.8857 68.6857 19.7714C68.8 18.1714 68.8 16.6857 68.8 15.2ZM16.5714 17.2571C16.3428 17.2571 16.1143 17.2571 16 17.1428C15.7714 17.0285 15.6571 16.9142 15.4286 16.8C15.3143 16.6857 15.2 16.4571 15.0857 16.2285C14.9714 16 14.9714 15.7714 14.9714 15.6571C14.9714 15.2 15.2 14.8571 15.4286 14.5142C15.7714 14.1714 16.1143 14.0571 16.5714 14.0571C16.8 14.0571 17.0286 14.0571 17.1428 14.1714C17.3714 14.2857 17.4857 14.4 17.7143 14.5142C17.8286 14.6285 17.9428 14.8571 18.0571 14.9714C18.1714 15.2 18.1714 15.3142 18.1714 15.5428C18.1714 15.7714 18.1714 16 18.0571 16.1142C17.9428 16.3428 17.8286 16.4571 17.7143 16.6857C17.6 16.8 17.3714 16.9142 17.1428 17.0285C17.0286 17.1428 16.8 17.2571 16.5714 17.2571ZM21.7143 17.2571C21.4857 17.2571 21.2571 17.2571 21.1428 17.1428C20.9143 17.0285 20.8 16.9142 20.5714 16.8C20.4571 16.6857 20.3428 16.4571 20.2286 16.2285C20.1143 16 20.1143 15.7714 20.1143 15.6571C20.1143 15.2 20.3428 14.8571 20.5714 14.5142C20.9143 14.1714 21.2571 14.0571 21.7143 14.0571C21.9428 14.0571 22.1714 14.0571 22.2857 14.1714C22.5143 14.2857 22.6286 14.4 22.8571 14.5142C22.9714 14.6285 23.0857 14.8571 23.2 14.9714C23.3143 15.2 23.3143 15.3142 23.3143 15.5428C23.3143 15.7714 23.3143 16 23.2 16.1142C23.0857 16.3428 22.9714 16.4571 22.8571 16.6857C22.7428 16.8 22.5143 16.9142 22.2857 17.0285C22.1714 17.1428 21.9428 17.2571 21.7143 17.2571ZM26.8571 17.2571C26.6286 17.2571 26.4 17.2571 26.2857 17.1428C26.0571 17.0285 25.9428 16.9142 25.7143 16.8C25.6 16.6857 25.4857 16.4571 25.3714 16.2285C25.2571 16 25.2571 15.7714 25.2571 15.6571C25.2571 15.2 25.4857 14.8571 25.7143 14.5142C26.0571 14.1714 26.4 14.0571 26.8571 14.0571C27.0857 14.0571 27.3143 14.0571 27.4286 14.1714C27.6571 14.2857 27.7714 14.4 28 14.5142C28.2286 14.6285 28.2286 14.8571 28.3428 14.9714C28.4571 15.2 28.4571 15.3142 28.4571 15.5428C28.4571 15.7714 28.4571 16 28.3428 16.1142C28.2286 16.3428 28.1143 16.4571 28 16.6857C27.8857 16.8 27.6571 16.9142 27.4286 17.0285C27.3143 17.1428 27.0857 17.2571 26.8571 17.2571ZM63.2 17.1428C62.9714 17.1428 62.8571 17.1428 62.6286 17.1428H46.6286C46.4 17.1428 46.1714 17.1428 45.9429 17.1428C45.7143 17.1428 45.4857 17.0285 45.3714 16.8C45.2571 16.5714 45.1428 16.3428 45.1428 16.1142C45.1428 15.8857 45.2571 15.6571 45.3714 15.5428C45.4857 15.3142 45.7143 15.2 45.9429 15.2C46.1714 15.2 46.4 15.2 46.6286 15.2H62.5143C62.7429 15.2 62.8571 15.2 63.0857 15.2C63.3143 15.2 63.5428 15.3142 63.7714 15.5428C63.8857 15.7714 64 16 64 16.2285C64 16.4571 63.8857 16.6857 63.7714 16.9142C63.6571 17.0285 63.4286 17.1428 63.2 17.1428Z" fill="#FFA842"/>
<path d="M29.3714 56.2286L23.7714 59.4286C22.2857 56.9143 21.4857 54.0571 21.2571 51.0857H27.6571L29.3714 56.2286Z" fill="#FF9BD7"/>
<path d="M58.6285 51.2C58.5143 54.1714 57.6 56.9142 56.2285 59.5428L50.6285 56.3428C51.2 54.6285 51.6571 52.9142 52.2285 51.2H58.6285Z" fill="#68DC97"/>
<path d="M48.4571 33.4856L45.2571 39.0856L41.0286 37.9428V31.4285C43.6571 31.657 46.1714 32.3428 48.4571 33.4856Z" fill="#68DC97"/>
<path d="M38.9714 31.543V38.0573L34.7428 39.2001L31.5428 33.6001C33.8286 32.343 36.3428 31.6573 38.9714 31.543Z" fill="#68DC97"/>
<path d="M55.6571 40.0001L50.2857 43.0858C49.1428 41.943 48.2286 41.0287 47.0857 39.8858L50.1714 34.5144C52.3428 35.8858 54.2857 37.7144 55.6571 40.0001Z" fill="#68DC97"/>
<path d="M32.9143 39.8858L29.7143 43.0858L24.3428 40.0001C25.7143 37.8287 27.6571 36.0001 29.8285 34.5144L32.9143 39.8858Z" fill="#FF9BD7"/>
<path d="M28.9143 45.3715C28.5714 46.5144 28.2286 47.7715 27.7714 49.0287H21.2571C21.3714 46.4001 22.0571 43.8858 23.2 41.6001C23.6571 41.8287 24 42.0572 24.3429 42.2858C25.7143 43.0858 27.0857 43.8858 28.4571 44.6858C29.0286 44.9144 29.0286 45.0287 28.9143 45.3715Z" fill="#FF9BD7"/>
<path d="M58.6286 49.1429H52.1143C51.7714 47.7715 51.4286 46.4001 50.9714 44.9144L56.5714 41.7144C57.8286 44.0001 58.5143 46.5144 58.6286 49.1429Z" fill="#68DC97"/>
<path d="M47.3143 47.0858C45.8286 48.0001 44.2286 48.8001 42.7429 49.7144C42.6286 49.8286 42.5143 49.8286 42.4 50.0572C42.2857 50.0572 42.2857 50.2858 42.2857 50.4001C42.2857 50.9715 41.9429 51.4286 41.6 51.7715C41.1429 52.1144 40.6857 52.3429 40.1143 52.3429C39.6572 52.3429 39.2 52.2286 38.8572 52.0001C38.5143 51.7715 38.1714 51.4286 38.0572 50.9715C37.7143 50.0572 37.8286 49.2572 38.5143 48.5715C38.8572 48.2286 39.2 48.0001 39.6572 47.8858C40.1143 47.7715 40.5714 47.8858 41.0286 48.0001C41.4857 48.2286 41.7143 48.1144 42.0572 47.8858C43.5429 46.9715 45.0286 46.1715 46.5143 45.2572C47.0857 44.9144 47.6572 45.0286 48 45.4858C48.1143 46.0572 47.8857 46.7429 47.3143 47.0858Z" fill="#0080F6"/>
</svg>
