<svg width="336" height="220" viewBox="0 0 336 220" fill="none" xmlns="http://www.w3.org/2000/svg">
<path d="M62.7046 94.4912C62.5829 94.0372 62.2343 93.644 61.7195 93.5387C61.5533 93.8265 61.9019 94.2197 62.7046 94.4912C61.4806 96.2789 59.1216 98.3707 56.0208 100.418C56.2641 101.326 56.6127 101.719 57.4599 101.249C56.7789 101.431 53.1188 104.115 51.3028 104.602C51.3517 107.508 46.4676 111.98 46.7598 115.794C50.5014 117.954 55.5115 117.585 58.507 116.052C61.5024 114.52 67.8256 110.879 70.2617 109.983C73.9424 111.916 76.3384 115.41 77.6157 120.177C74.0283 120.408 67.174 122.975 63.2988 123.04C55.9623 127.439 48.7029 133.033 41.0667 139.945C41.0058 139.718 41.2774 138.916 41.2165 138.689C39.4614 139.402 38.9673 143.914 37.4391 144.567C37.2122 144.627 36.3932 143.387 35.5461 143.857C35.2909 145.629 33.3414 148.341 30.0907 151.645C26.6739 155.236 24.7689 157.207 24.2096 157.843C24.0271 157.162 23.7393 156.996 23.2853 157.118C22.5435 157.073 22.045 157.936 21.6681 159.254C22.941 160.373 21.8017 157.029 24.2096 157.843C23.9543 159.615 22.0939 160.843 20.6548 160.012C20.8981 160.92 22.1102 161.812 21.263 162.282C19.4916 162.027 19.5242 163.964 19.2972 164.025C19.2364 163.798 18.9486 163.632 18.6608 163.466L18.2068 163.587C18.2676 163.814 18.5554 163.981 18.7824 163.92L19.2972 164.025C19.3135 164.994 18.9203 165.343 18.0569 164.844C17.7691 164.678 17.5421 164.739 17.2543 164.573C18.9366 166.311 13.9754 169.587 13.6919 173.069C12.9501 173.025 12.0259 172.299 11.7989 172.36C12.014 174.978 11.0332 177.674 8.75137 180.962C6.69651 184.188 5.71579 186.884 5.58221 189.11C3.84339 190.792 4.87737 194.651 4.04652 196.09C4.22899 196.771 4.86544 197.33 5.60724 197.375C4.89803 199.268 5.40091 202.053 6.54024 205.397C15.4386 215.907 32.6945 214.932 58.7616 202.352C59.6696 202.109 60.533 202.607 61.214 202.425C94.3017 186.99 117.961 173.595 132.646 162.118C133.161 162.224 133.509 162.617 133.631 163.071C133.072 163.707 132.739 164.283 132.8 164.51C133.769 164.494 133.874 163.979 133.631 163.071C135.431 161.615 139.978 154.071 143.594 152.13C144.677 158.895 138.419 166.411 132.894 166.675C132.91 167.643 133.773 168.142 133.956 168.823C126.664 172.48 122.157 175.634 120.783 178.678C120.6 177.997 120.706 177.482 121.038 176.907C119.692 178.24 118.768 177.515 119.376 179.785C119.149 179.846 118.347 179.574 117.483 179.076C117.256 179.136 116.758 180 116.016 179.955C116.32 181.09 116.669 181.483 116.956 181.65C116.126 183.089 114.05 181.699 114.658 183.968C113.916 183.924 113.385 182.85 113.098 182.684C111.282 183.17 109.802 186.729 108.047 187.443C108.092 186.701 109.664 185.307 109.36 184.172C106.681 184.16 108.242 185.444 107.245 187.171C105.263 187.946 100.755 191.1 99.1663 191.526C98.5462 191.935 97.1842 192.3 95.3074 192.56C94.8252 194.392 91.6028 195.985 90.1355 196.865C89.726 196.245 89.8922 195.957 90.7394 195.487C91.6473 195.243 92.0405 194.895 91.631 194.274C91.0999 193.2 90.3299 194.866 89.4056 194.141C89.3611 194.883 88.0763 196.443 88.729 197.972C86.4146 199.322 81.7976 199.342 81.7411 202.763C80.8169 202.038 77.3512 202.723 76.8201 201.649C75.4581 202.014 76.7028 204.843 74.4003 203.514C72.1749 203.38 70.9183 203.231 70.6913 203.291C71.5547 203.79 71.9033 204.183 72.1303 204.122C71.8751 205.894 66.2611 207.641 66.1275 209.867C65.641 208.051 65.5638 206.855 65.6692 206.34L62.0373 207.313C62.0699 209.251 63.9304 208.022 65.0653 207.718C64.3561 209.611 60.0878 210.025 59.3623 210.949C59.1353 211.01 58.3001 208.801 56.8936 209.908C56.2735 210.317 56.3343 210.544 57.4247 210.982C57.9395 211.087 58.0003 211.314 57.3194 211.497C56.6992 211.906 56.306 212.255 56.3669 212.482C55.3981 212.498 54.9886 211.878 55.4871 211.015C55.6533 210.727 55.8195 210.439 55.7586 210.212C53.9427 210.699 53.416 213.273 52.7513 214.424C51.2959 212.624 47.121 215.203 45.4712 215.401C45.0618 214.781 44.4861 214.449 44.0321 214.571C43.1242 214.814 43.185 215.041 44.2754 215.479C44.7902 215.584 45.3051 215.689 45.4712 215.401C45.0944 216.719 42.8407 218.296 42.0663 216.314C41.3854 216.496 41.2192 216.784 41.28 217.011C40.8868 217.36 40.7207 217.647 40.9031 218.328C38.2238 218.317 36.6348 218.742 36.1363 219.606L35.7105 218.017C34.5148 218.094 34.4702 218.836 35.0013 219.91C33.9109 219.472 30.96 220.263 29.3993 218.978C29.3385 218.751 28.702 218.192 28.6412 217.965C27.9602 218.147 27.4172 219.752 26.2214 219.83C26.1606 219.603 25.2971 219.104 25.1146 218.423C24.9485 218.711 24.8431 219.226 24.9648 219.68C24.223 219.635 23.6919 218.561 23.4041 218.395C13.4001 220.102 5.03278 210.666 0.735046 199.167C-2.50921 182.519 7.87046 165.87 17.3791 155.051C20.342 151.581 24.2573 147.126 29.2468 142.139C34.0092 137.214 37.7584 133.046 40.1619 130.213C42.9911 128.968 46.1973 126.406 49.7803 122.527C45.4185 120.776 44.4616 118.113 42.0896 109.26C44.8493 100.492 53.438 92.5949 60.3043 87.3491C63.5104 84.7869 74.6732 77.4167 77.32 75.491C79.0751 74.7774 82.9785 73.0017 88.9085 69.7097C94.6116 66.4785 99.8769 64.3378 104.705 63.2875C109.532 62.2372 113.529 62.6261 117.271 64.7863C120.713 69.4597 121.325 75.3778 119.169 82.7676C118.942 82.8284 118.278 83.9797 117.536 83.9351C116.948 86.2822 114.91 90.4778 111.996 96.8542C108.855 103.291 106.772 108.229 105.868 112.12C102.029 104.147 104.168 95.7888 108.067 90.3648C111.966 84.9409 116.619 76.8821 116.732 70.0397C109.569 67.823 98.2967 72.0599 92.2005 75.6397C86.1043 79.2195 75.667 85.6655 70.1747 87.8671C70.4788 89.002 68.286 90.806 68.4847 92.4558C67.7712 90.7007 64.5813 94.2316 62.7046 94.4912ZM50.018 106.162L50.9705 105.177C50.3504 105.587 49.9572 105.935 50.018 106.162ZM44.528 135.612C43.847 135.794 43.4539 136.143 43.5147 136.37C44.1957 136.187 44.5888 135.839 44.528 135.612ZM26.2036 154.389C26.9454 154.434 27.5047 153.797 27.5493 153.056C26.8683 153.238 26.2481 153.648 26.2036 154.389ZM137.49 162.037C137.263 162.098 137.036 162.159 136.87 162.446C136.643 162.507 136.416 162.568 136.477 162.795C137.158 162.612 137.551 162.264 137.49 162.037ZM98.343 186.637C98.2659 185.441 98.1443 184.987 97.8564 184.821C97.9173 185.048 97.9781 185.275 97.8119 185.563C97.7674 186.305 97.8282 186.532 98.343 186.637ZM100.402 187.058C99.932 186.211 99.9765 185.47 100.309 184.894C99.34 184.91 99.0077 185.486 99.251 186.394C99.2065 187.136 99.7213 187.241 100.402 187.058ZM101.464 189.207C102.145 189.024 102.705 188.388 102.749 187.646C101.614 187.95 101.16 188.072 101.464 189.207ZM99.0729 189.361L99.3162 190.269L100.451 189.965L100.208 189.057L99.0729 189.361ZM93.2645 193.107C93.082 192.426 91.9471 192.73 92.1295 193.411C92.3565 193.35 92.3565 193.35 92.6443 193.516C92.9322 193.683 93.1592 193.622 93.2645 193.107ZM71.9272 198.824L72.2313 199.959L73.3663 199.655L73.0622 198.52L71.9272 198.824ZM67.1158 200.843C66.4349 201.026 66.2687 201.314 66.3295 201.541C67.0105 201.358 67.1767 201.07 67.1158 200.843ZM79.6656 201.373C79.8318 201.085 80.2858 200.964 80.9059 200.554C82.661 199.841 82.9326 199.038 81.8421 198.6C81.9029 198.827 81.9029 198.827 81.676 198.888L81.1003 198.556L80.9787 198.102C79.6167 198.467 78.8304 199.164 78.6805 200.421C78.5752 200.936 78.9238 201.329 79.6656 201.373ZM83.7352 199.31C85.2633 198.657 85.7618 197.793 85.5185 196.885C84.1121 197.992 83.5527 198.629 83.7352 199.31ZM77.4402 201.24C78.9846 201.556 76.2727 199.606 76.6984 201.195C76.9254 201.134 77.1524 201.074 77.4402 201.24ZM43.4522 210.59L43.7563 211.725C44.5589 211.997 44.9521 211.648 44.7088 210.74C44.3601 210.347 44.2993 210.12 44.0115 209.954C44.1331 210.408 43.967 210.695 43.4522 210.59ZM67.9391 205.732L67.3635 205.399C67.1973 205.687 66.9703 205.748 66.2285 205.704C66.184 206.445 66.5326 206.839 67.2136 206.656C67.8946 206.474 68.0608 206.186 67.9391 205.732ZM47.21 213.719C46.5291 213.902 46.3629 214.189 46.4237 214.416C47.1047 214.234 47.2709 213.946 47.21 213.719ZM54.1484 104.326C54.0876 104.099 54.4807 103.75 55.1617 103.568C55.2225 103.795 54.8294 104.143 54.1484 104.326ZM5.58221 189.11C6.20237 188.7 6.7617 188.064 6.97239 187.034C8.9708 187.228 6.81059 190.97 5.58221 189.11ZM5.6148 191.047C6.12961 191.153 6.19043 191.379 6.08508 191.894C5.91892 192.182 5.97974 192.409 6.04056 192.636C5.52575 192.531 5.46493 192.304 5.57028 191.789C5.73645 191.501 5.67563 191.274 5.6148 191.047Z" fill="#222426"/>
<path d="M156.627 114.82C156.915 114.986 157.081 114.698 156.96 114.244C157.126 113.956 157.292 113.669 157.17 113.215C157.337 112.927 157.276 112.7 157.215 112.473C156.988 112.534 156.883 113.048 156.96 114.244C156.672 114.078 156.506 114.366 156.627 114.82C156.129 115.683 155.768 117.97 155.27 118.833C154.982 118.667 154.633 118.274 154.329 117.139C152.424 119.109 149.522 122.806 145.85 128.169C141.951 133.593 138.368 137.473 135.328 139.747C129.426 141.328 127.379 138.227 124.468 134.628C126.98 121.304 133.25 111.109 143.217 103.816C143.732 103.921 146.987 104.265 152.877 105.363C156.067 101.832 158.531 99.2257 160.043 97.6042C160.724 97.4217 163.586 98.1146 165.341 97.4011C166.691 99.7155 166.922 103.303 165.703 108.739C164.483 114.175 164.443 118.565 166.036 121.787C166.446 122.407 168.898 122.48 169.186 122.646C170.033 122.176 176.656 116.022 188.889 104.472C189.132 105.38 188.573 106.017 188.816 106.925C189.481 105.774 192.581 103.726 190.627 102.79C192.731 102.47 194.393 99.5915 194.133 97.7148C197.161 98.1199 198.158 96.393 200.246 95.1038C198.511 100.434 194.507 106.373 187.779 113.042C184.24 116.179 177.699 127.177 171.781 127.79C171.266 127.684 168.753 127.385 164.014 126.951C159.802 123.944 158.614 117.694 156.627 114.82ZM132.308 133.014C135.94 132.041 136.555 127.983 137.885 125.681C143.871 118.968 147.77 113.544 149.87 109.575C144.649 110.974 140.34 115.778 138.74 118.883C137.349 120.959 132.806 132.151 132.308 133.014Z" fill="#222426"/>
<path d="M231.303 91.6478C231.923 91.2384 232.195 90.4358 231.89 89.3008C230.922 89.3171 230.816 89.8319 231.06 90.7399L231.303 91.6478C229.487 92.1344 227.975 93.756 226.767 96.5125C218.462 100.927 210.643 107.158 203.372 115.432C204.008 115.992 204.678 118.489 205.318 122.696C203.701 124.832 199.514 130.09 197.277 132.636C196.158 133.909 194.647 135.53 192.515 137.561C188.765 141.729 186.722 142.276 181.745 144.583C179.37 145.706 177.039 146.087 175.146 145.378C174.432 143.623 171.372 141.28 170.658 139.525C172.846 134.073 177.532 127.952 181.009 124.587C184.487 121.222 192.865 114.355 195.783 111.627C182.224 101.879 193.677 84.6993 201.679 79.1493C207.187 77.9165 210.187 80.0322 210.905 85.4355C206.304 86.425 202.478 89.3965 199.426 94.3502C196.435 99.5309 196.29 104.436 199.217 109.004C206.492 104.378 218.36 91.4666 225.551 91.9726C226.171 91.5632 225.064 90.1567 225.956 88.9446C229.815 87.9106 232.66 87.6347 234.886 87.7683C234.841 88.5101 232.543 90.8289 232.288 92.6003C231.773 92.495 231.425 92.1018 231.303 91.6478ZM224.42 95.9249C225.555 95.6208 226.115 94.9844 225.705 94.3642L224.57 94.6683C224.631 94.8953 224.36 95.6979 224.42 95.9249ZM189.401 128.664C188.72 128.847 187.933 129.544 187.102 130.983C188.071 130.967 188.797 130.042 189.401 128.664ZM236.608 85.1171C236.232 86.4346 235.202 86.2239 233.674 86.8766C233.248 85.2877 235.684 84.3916 236.608 85.1171ZM240.739 83.2805C240.755 84.2493 238.485 84.8576 238.441 85.5994C237.411 85.3887 237.743 84.813 239.211 83.9333C239.831 83.5238 240.285 83.4022 240.739 83.2805ZM210.842 108.808C210.781 108.581 211.174 108.233 211.855 108.05C211.916 108.277 211.523 108.626 210.842 108.808Z" fill="#222426"/>
<path d="M264.228 88.1779C264.622 87.8292 267.041 85.9644 271.2 82.4172C275.419 79.097 278.399 76.5957 280.259 75.3673C283.753 72.9714 292.678 68.1469 299.444 67.064C298.978 69.8651 294.393 71.8233 293.563 73.2624C288.978 75.2206 283.851 78.7841 278.18 83.9529C272.51 89.1216 268.29 92.4418 265.81 94.0797C263.528 97.3673 257.436 104.595 255.819 106.732C255.807 109.411 254.66 112.394 252.5 116.136C250.34 119.878 249.254 123.088 249.181 125.541C247.11 127.799 244.783 131.828 242.141 137.402C239.498 142.976 236.884 146.839 234.359 149.218L234.967 151.488C232.791 154.261 229.556 158.534 225.552 164.473C221.548 170.411 218.086 174.745 215.683 177.579C202.951 176.368 205.24 166.753 209.362 157.62C212.004 152.046 217.216 143.35 218.258 140.882L220.301 140.334C220.54 137.594 222.307 134.201 225.436 130.443C228.565 126.685 230.393 123.519 230.919 120.945C233.477 120.503 236.817 115.716 237.66 111.597C239.37 111.626 241.004 110.458 242.045 107.989C243.147 105.748 244.327 104.702 245.811 104.791C242.523 102.509 250.938 101.227 249.466 98.4589C250.147 98.2764 250.95 98.5479 251.359 99.1681C253.398 94.9725 256.19 88.1421 259.842 78.1619C254.775 81.9524 247.986 88.3941 239.762 97.6531C231.311 106.973 225.884 113.05 223.132 115.49C222.601 114.416 218.255 113.634 216.861 112.061C217.889 98.648 221.662 89.1219 227.892 83.3167C237.645 87.0289 226.377 94.914 226.143 101.302C227.217 100.771 228.729 99.1497 230.678 96.4378C232.628 93.7258 234.261 92.5582 235.578 92.9351C238.614 87.0126 241.577 83.5426 244.589 82.9789C245.541 81.9938 251.074 75.4023 252.979 73.4321C254.884 71.4619 259.452 68.5348 263.311 67.5009C271.657 72.3198 264.917 81.6678 264.228 88.1779ZM244.822 113.814L245.126 114.949L246.261 114.645L245.957 113.51L244.822 113.814ZM214.352 166.257C225.174 152.166 235.1 135.639 243.963 116.964C243.1 116.465 242.751 116.072 242.524 116.133C240.364 119.874 237.312 124.828 232.688 131.176C228.29 137.464 224.513 143.342 221.189 149.098C218.093 154.793 215.738 160.533 214.352 166.257Z" fill="#222426"/>
<path d="M323.831 23.7926L323.377 23.9142C323.134 23.0063 323.633 22.1428 323.101 21.0687C322.331 22.7348 322.242 24.2184 322.668 25.8073C320.686 26.5817 319.13 28.945 318.06 33.1243C316.824 37.5914 315.389 40.4088 313.983 41.5155C315.604 43.0273 312.641 46.4974 312.719 47.6932C313.704 48.6457 314.113 49.2658 314.34 49.205C314.462 49.659 313.509 50.6441 313.631 51.0981C313.404 51.1589 312.524 49.6916 312.297 49.7524L312.192 50.2672C311.633 50.9037 311.179 51.0253 310.603 50.693C309.412 54.4183 310.097 57.884 307.466 60.7784L307.345 60.3245L307.179 60.6123L307.466 60.7784C307.305 64.7144 305.975 67.017 303.024 67.8076C303.778 65.1728 303.685 63.0082 303.032 61.4801C304.228 61.403 305.075 60.9327 305.634 60.2962C304.219 54.1066 306.164 47.7464 311.818 41.6089L310.967 38.431C311.842 36.2501 313.427 32.1762 315.493 26.27C317.621 20.5908 319.477 15.7143 321.062 11.6404C322.707 7.79342 324.867 4.05182 327.149 0.764216C331.191 0.411205 333.781 1.90673 335.313 4.90216C333.392 5.90355 330.368 9.14663 328.658 9.11839C329.205 11.1613 329.343 12.5841 328.784 13.2206C327.815 13.2369 327.239 12.9045 327.345 12.3897C325.59 13.1033 327.681 15.4623 327.244 16.5527C325.201 17.1001 326.668 16.2204 326.303 14.8584C325.351 15.8435 324.686 16.9948 324.309 18.3122C324.597 18.4784 324.885 18.6445 325.051 18.3567C325.217 18.0689 325.671 17.9472 325.898 17.8864C325.975 19.0822 325.266 20.9753 323.831 23.7926ZM316.333 32.1273C315.968 30.7654 315.332 30.206 314.651 30.3885C315.016 31.7504 315.198 32.4314 315.486 32.5976C315.713 32.5368 315.94 32.4759 316.333 32.1273ZM310.886 47.211C310.809 46.0152 310.688 45.5612 310.4 45.395C310.461 45.622 310.521 45.849 310.355 46.1368C310.311 46.8786 310.372 47.1056 310.886 47.211ZM319.965 31.1542C320.131 30.8663 320.358 30.8055 320.585 30.7447C320.751 30.4569 320.751 30.4569 320.978 30.3961C321.039 30.623 320.646 30.9717 319.965 31.1542ZM318.834 35.1064C318.713 34.6525 318.879 34.3646 319.106 34.3038C319.227 34.7578 319.061 35.0456 318.834 35.1064ZM318.153 35.2889L318.834 35.1064C319.138 36.2414 319.26 36.6954 318.125 36.9995L317.821 35.8645C318.275 35.7429 318.441 35.4551 318.153 35.2889ZM309.925 40.8997C310.44 41.0051 310.501 41.232 310.456 41.9738C310.29 42.2617 310.29 42.2617 310.351 42.4886C310.124 42.5495 310.002 42.0955 309.925 40.8997ZM317.266 40.1492L316.962 39.0142L318.097 38.7101L318.401 39.8451L317.266 40.1492ZM303.266 92.3153C302.196 96.4946 295.856 99.1664 292.824 95.1131C293.452 88.3761 300.196 82.6762 303.266 92.3153Z" fill="#222426"/>
</svg>
