<svg width="80" height="80" viewBox="0 0 80 80" fill="none" xmlns="http://www.w3.org/2000/svg">
<path d="M32.9302 27.1582C33.2237 27.1582 33.5219 27.1582 33.8107 27.1582C33.5171 27.1629 33.2225 27.1582 32.9302 27.1582Z" fill="white"/>
<path d="M61.1165 49.7718C60.6821 51.2511 59.6714 52.2062 58.2158 52.6712C58.6619 55.9339 58.1294 56.9991 55.488 58.3246C55.5117 59.153 55.6571 59.9447 55.5329 60.6914C55.2441 62.4204 53.8039 63.7435 52.0251 64.0903C51.9215 64.1163 51.8195 64.1488 51.7199 64.1874H40.1919C39.0083 64.0347 37.8249 63.9081 36.6415 63.7258C34.4722 63.3897 32.4 62.688 30.3337 61.9791C30.2153 61.9388 30.1432 61.7424 30.0745 61.6158C30.0414 61.553 30.0745 61.4607 30.0745 61.3791C30.0745 54.6073 30.0713 47.8364 30.065 41.0663C30.065 40.6983 30.1704 40.5136 30.5065 40.3562C31.9171 39.6923 33.271 38.9361 34.4533 37.8887C35.8119 36.6887 36.5693 35.1242 37.1586 33.4708C38.0341 31.0379 38.5178 28.4815 38.5918 25.8968C38.6131 25.1051 39.0723 24.5122 39.8072 24.4471C41.5824 24.2897 43.3031 24.485 44.7777 25.6305C46.2239 26.7608 47.0712 28.2342 47.0842 30.0803C47.1154 32.5702 46.7967 35.052 46.1375 37.4532C46.0334 37.826 45.8795 38.1846 45.7269 38.6118H46.3351C49.689 38.6118 53.0422 38.6118 56.3945 38.6118C57.8217 38.6118 59.088 38.9916 60.1235 40.0249C61.4893 41.3882 61.6963 43.6498 60.5839 45.2249C60.475 45.38 60.3638 45.5314 60.2288 45.7126C61.2182 46.9148 61.5555 48.277 61.1165 49.7718Z" fill="#0080F6"/>
<path d="M27.2366 62.3848C27.2366 63.2547 26.9538 63.8784 26.1135 64.1896H19.7821C18.9595 63.8535 18.6921 63.2334 18.6945 62.3611C18.7146 55.058 18.7051 47.7551 18.7063 40.452C18.7063 39.1064 19.1797 38.6247 20.5193 38.6235C22.1714 38.6235 23.8239 38.6235 25.4768 38.6235C26.7077 38.6235 27.2283 39.1478 27.2283 40.3786C27.2299 47.7144 27.2327 55.0498 27.2366 62.3848Z" fill="#68DC97"/>
<path d="M39.2072 21.3391C38.8878 21.507 38.5151 21.542 38.1701 21.4365C37.825 21.331 37.5355 21.0935 37.3646 20.7758C36.8333 19.7948 36.3232 18.7995 35.8651 17.7818C35.4439 16.8456 36.1409 15.8183 37.2368 15.8125C37.4765 15.8195 37.7098 15.8911 37.9122 16.0196C38.1146 16.148 38.2787 16.3287 38.3871 16.5427C38.896 17.5178 39.4001 18.4978 39.8653 19.4942C40.0208 19.8263 40.039 20.2066 39.9158 20.552C39.7926 20.8975 39.5379 21.1804 39.2072 21.3391Z" fill="#FFA842"/>
<path d="M49.9328 17.3487C49.9154 17.4948 49.8789 17.638 49.824 17.7746C49.3341 18.777 48.8464 19.7865 48.3246 20.7676C48.1858 21.0275 47.967 21.2356 47.7003 21.3611C47.4338 21.4865 47.1338 21.5224 46.8453 21.4635C46.5639 21.4132 46.305 21.2774 46.1038 21.0744C45.9025 20.8715 45.7688 20.6114 45.7209 20.3297C45.6721 20.0995 45.6902 19.8601 45.773 19.6398C46.2831 18.5604 46.7991 17.4824 47.373 16.4362C47.6795 15.8764 48.3458 15.693 48.9411 15.8824C49.5363 16.0716 49.9305 16.5924 49.9328 17.3487Z" fill="#FFA842"/>
<path d="M35.7397 25.8281C35.7209 26.1856 35.5661 26.5224 35.3069 26.7693C35.0475 27.0162 34.7037 27.1546 34.3456 27.1559C34.1669 27.1559 33.9905 27.1629 33.8106 27.1629C33.5171 27.1629 33.219 27.1629 32.9302 27.1629H32.4864C32.1467 27.1629 31.8071 27.1629 31.4674 27.1629C30.6899 27.1405 30.1112 26.5831 30.0757 25.8434C30.0402 25.1037 30.5313 24.4127 31.2959 24.3665C32.3632 24.3056 33.4333 24.3056 34.5006 24.3665C35.2545 24.3996 35.7858 25.1061 35.7397 25.8281Z" fill="#FFA842"/>
<path d="M55.6063 25.8448C55.5696 26.5856 54.9933 27.1347 54.2098 27.1572C53.7234 27.1701 53.2346 27.1572 52.7482 27.1572C52.2914 27.1572 51.8358 27.1678 51.3802 27.1572C50.5766 27.1358 49.992 26.5844 49.9458 25.8187C49.9245 25.4525 50.0487 25.0929 50.2914 24.8179C50.5342 24.543 50.8758 24.3753 51.2417 24.3512C52.2777 24.2973 53.3158 24.2973 54.3519 24.3512C55.1424 24.3962 55.6454 25.0612 55.6063 25.8448Z" fill="#FFA842"/>
</svg>
