<svg width="170" height="60" viewBox="0 0 170 60" fill="none" xmlns="http://www.w3.org/2000/svg">
<path d="M26.5083 0L0 14.9946V44.9837L26.5083 59.9782L53.0142 44.9837V14.9946L26.5083 0ZM2.961 16.6875L25.0303 4.20089V13.1251L14.9284 18.8327L25.0278 24.5475V29.1547L20.9565 31.4571L10.8595 25.7447V37.172L2.96347 41.6413L2.961 16.6875ZM26.5083 56.648L4.44149 44.159L12.3375 39.6921L22.437 45.4069V33.9796L26.5083 31.6772L30.5797 33.982V45.4093L40.6767 39.6945L48.5727 44.1614L26.5083 56.648ZM50.0532 41.6486L42.1572 37.1792V25.7519L32.0577 31.4668L27.9888 29.162V24.5524L38.0858 18.8327L27.9888 13.1178V4.19122L50.0556 16.6754L50.0532 41.6486Z" fill="url(#paint0_linear_258_914)"/>
<path d="M71.3748 40.1803C69.4008 40.1803 67.7304 39.7595 66.3634 38.9178C65.017 38.0895 63.9914 36.8442 63.4492 35.3796L67.3553 33.1594C68.1465 34.9539 69.5333 35.8512 71.5155 35.8512C73.3102 35.8512 74.2067 35.324 74.2051 34.2695C74.2102 33.9873 74.1296 33.71 73.9737 33.4728C73.8177 33.2355 73.5934 33.049 73.3291 32.9369C72.7254 32.5855 71.6496 32.2066 70.1016 31.8003C68.6572 31.4405 67.294 30.8196 66.0821 29.9695C64.873 29.0021 64.2685 27.6421 64.2685 25.8895C64.2685 24.095 64.9199 22.6616 66.2227 21.5894C67.5377 20.5187 69.2017 19.9471 70.9109 19.9787C72.4248 19.9494 73.9163 20.3392 75.2143 21.1033C76.495 21.8906 77.5177 23.0223 78.1605 24.3634L74.3383 26.557C73.6211 25.0575 72.4786 24.3078 70.9109 24.3078C70.3598 24.2782 69.8136 24.4242 69.354 24.7238C69.1788 24.8407 69.0357 24.998 68.9372 25.1819C68.8387 25.3658 68.7877 25.5706 68.7889 25.7783C68.7975 26.0235 68.8631 26.2636 68.9807 26.4803C69.0983 26.697 69.2648 26.8845 69.4675 27.0286C69.961 27.3994 70.9241 27.7872 72.3569 28.1919L74.1952 28.7747C74.7673 28.9697 75.3179 29.2209 75.8386 29.5245C76.4154 29.7837 76.9344 30.1519 77.3659 30.608C78.2805 31.5908 78.7682 32.8843 78.7255 34.2139C78.7255 36.0455 78.0461 37.5071 76.6874 38.5986C75.3352 39.6531 73.5643 40.1803 71.3748 40.1803Z" fill="url(#paint1_linear_258_914)"/>
<path d="M88.4446 25.5295C89.1467 25.508 89.8454 25.633 90.4946 25.8961C91.1437 26.1591 91.7284 26.5544 92.21 27.0556C93.2282 28.0939 93.7382 29.4999 93.7398 31.2734V39.7913H89.4834V31.8925C89.4834 31.0993 89.2564 30.4777 88.8024 30.0352C88.5676 29.8106 88.2885 29.6356 87.9821 29.5208C87.6757 29.406 87.3486 29.3539 87.0209 29.3677C86.6635 29.3463 86.3056 29.4 85.9712 29.5251C85.6367 29.6502 85.3333 29.8439 85.0814 30.0932C84.6175 30.5769 84.388 31.3024 84.388 32.2166V39.7913H80.1415V20.3685H84.388V27.2225C85.2434 26.0922 86.5956 25.5279 88.4446 25.5295Z" fill="url(#paint2_linear_258_914)"/>
<path d="M108.064 38.0719C107.371 38.761 106.541 39.3036 105.626 39.6663C104.71 40.0291 103.729 40.2041 102.742 40.1808C101.755 40.2041 100.773 40.0291 99.8577 39.6663C98.9424 39.3036 98.1125 38.761 97.4193 38.0719C96.7124 37.3949 96.1544 36.5833 95.7797 35.687C95.405 34.7906 95.2215 33.8286 95.2405 32.8601C95.2231 31.8951 95.4074 30.9367 95.7821 30.0441C96.1568 29.1516 96.714 28.3436 97.4193 27.67C98.1109 26.9771 98.9398 26.4301 99.8552 26.0629C100.77 25.6956 101.753 25.5158 102.742 25.5345C103.731 25.5158 104.713 25.6956 105.628 26.0629C106.543 26.4301 107.372 26.9771 108.064 27.67C108.769 28.3436 109.327 29.1516 109.701 30.0441C110.076 30.9367 110.26 31.8951 110.243 32.8601C110.262 33.8286 110.078 34.7906 109.704 35.687C109.329 36.5833 108.771 37.3949 108.064 38.0719ZM99.487 32.8601C99.4704 33.2947 99.5446 33.728 99.705 34.1335C99.8654 34.539 100.109 34.9081 100.42 35.2181C100.722 35.5184 101.084 35.7546 101.484 35.9123C101.883 36.0699 102.311 36.1456 102.742 36.1347C103.172 36.1456 103.6 36.0699 104 35.9123C104.399 35.7546 104.761 35.5184 105.064 35.2181C105.375 34.9083 105.619 34.5393 105.78 34.1338C105.94 33.7283 106.015 33.2948 105.999 32.8601C106.015 32.4253 105.94 31.9919 105.78 31.5864C105.619 31.1809 105.375 30.8119 105.064 30.5021C104.761 30.2018 104.399 29.9655 104 29.8079C103.6 29.6502 103.172 29.5745 102.742 29.5855C102.311 29.5745 101.883 29.6502 101.484 29.8079C101.084 29.9655 100.722 30.2018 100.42 30.5021C100.109 30.8121 99.8654 31.1812 99.705 31.5867C99.5446 31.9922 99.4704 32.4255 99.487 32.8601Z" fill="url(#paint3_linear_258_914)"/>
<path d="M120.407 25.5293C122.258 25.5293 123.852 26.2411 125.191 27.6648C126.53 29.0885 127.188 30.8185 127.165 32.8549C127.165 34.9283 126.507 36.6672 125.191 38.0715C124.596 38.7406 123.861 39.2755 123.035 39.6396C122.209 40.0036 121.312 40.1881 120.407 40.1804C118.576 40.1804 117.17 39.6161 116.19 38.4875V45.3415H111.939V25.9187H116.185V27.2222C117.169 26.092 118.576 25.5277 120.407 25.5293ZM117.12 35.3241C117.443 35.6289 117.825 35.867 118.243 36.0245C118.661 36.1819 119.108 36.2555 119.556 36.2407C119.999 36.2573 120.442 36.1844 120.855 36.0268C121.269 35.8691 121.646 35.63 121.961 35.3241C122.603 34.7147 122.924 33.8916 122.924 32.8549C122.924 31.8181 122.603 30.9951 121.961 30.3856C121.646 30.0797 121.269 29.8406 120.855 29.6829C120.442 29.5253 119.999 29.4525 119.556 29.469C119.108 29.4543 118.661 29.5278 118.243 29.6853C117.825 29.8427 117.443 30.0809 117.12 30.3856C116.498 30.9951 116.188 31.8181 116.188 32.8549C116.188 33.8916 116.498 34.7147 117.12 35.3241Z" fill="url(#paint4_linear_258_914)"/>
<path d="M152.935 39.7912H147.981L146.994 36.7391H139.633L138.646 39.7912H133.691L140.43 20.3684H146.204L152.935 39.7912ZM143.312 25.4472L140.99 32.5769H145.634L143.312 25.4472Z" fill="url(#paint5_linear_258_914)"/>
<path d="M169.213 39.7912H164.342L160.606 33.4088H158.455V39.7912H153.925V20.3684H161.853C162.747 20.3522 163.635 20.5154 164.462 20.8482C165.29 21.1809 166.039 21.6761 166.664 22.3032C167.304 22.9162 167.809 23.651 168.149 24.4624C168.488 25.2739 168.655 26.1448 168.638 27.0216C168.638 28.1853 168.289 29.3232 167.634 30.2938C166.982 31.299 166.069 32.1161 164.989 32.6615L169.213 39.7912ZM161.853 24.5306H158.455V29.5248H161.853C162.157 29.5259 162.458 29.4615 162.734 29.3361C163.011 29.2108 163.255 29.0275 163.452 28.7992C163.897 28.313 164.136 27.6776 164.118 27.0241C164.136 26.3697 163.898 25.7334 163.452 25.2465C163.254 25.0205 163.009 24.8394 162.733 24.7158C162.456 24.5921 162.156 24.529 161.853 24.5306Z" fill="url(#paint6_linear_258_914)"/>
<defs>
<linearGradient id="paint0_linear_258_914" x1="0" y1="0" x2="174.285" y2="26.0705" gradientUnits="userSpaceOnUse">
<stop stop-color="#0062F6"/>
<stop offset="0.427083" stop-color="#0080F6"/>
<stop offset="1" stop-color="#00BBF6"/>
</linearGradient>
<linearGradient id="paint1_linear_258_914" x1="0" y1="0" x2="174.285" y2="26.0705" gradientUnits="userSpaceOnUse">
<stop stop-color="#0062F6"/>
<stop offset="0.427083" stop-color="#0080F6"/>
<stop offset="1" stop-color="#00BBF6"/>
</linearGradient>
<linearGradient id="paint2_linear_258_914" x1="0" y1="0" x2="174.285" y2="26.0705" gradientUnits="userSpaceOnUse">
<stop stop-color="#0062F6"/>
<stop offset="0.427083" stop-color="#0080F6"/>
<stop offset="1" stop-color="#00BBF6"/>
</linearGradient>
<linearGradient id="paint3_linear_258_914" x1="0" y1="0" x2="174.285" y2="26.0705" gradientUnits="userSpaceOnUse">
<stop stop-color="#0062F6"/>
<stop offset="0.427083" stop-color="#0080F6"/>
<stop offset="1" stop-color="#00BBF6"/>
</linearGradient>
<linearGradient id="paint4_linear_258_914" x1="0" y1="0" x2="174.285" y2="26.0705" gradientUnits="userSpaceOnUse">
<stop stop-color="#0062F6"/>
<stop offset="0.427083" stop-color="#0080F6"/>
<stop offset="1" stop-color="#00BBF6"/>
</linearGradient>
<linearGradient id="paint5_linear_258_914" x1="0" y1="0" x2="174.285" y2="26.0705" gradientUnits="userSpaceOnUse">
<stop stop-color="#0062F6"/>
<stop offset="0.427083" stop-color="#0080F6"/>
<stop offset="1" stop-color="#00BBF6"/>
</linearGradient>
<linearGradient id="paint6_linear_258_914" x1="0" y1="0" x2="174.285" y2="26.0705" gradientUnits="userSpaceOnUse">
<stop stop-color="#0062F6"/>
<stop offset="0.427083" stop-color="#0080F6"/>
<stop offset="1" stop-color="#00BBF6"/>
</linearGradient>
</defs>
</svg>
